<svg width="296px" height="296px" viewBox="0 0 296 296" version="1.1" xmlns="http://www.w3.org/2000/svg" xmlns:xlink="http://www.w3.org/1999/xlink">
  <g id="aa-texture" stroke="none" stroke-width="1" fill="none" fill-rule="evenodd">
      <path d="M32.509668,32.509668 L32.509668,4.50966799 C32.509668,-5.43145751 40.5685425,-13.490332 50.509668,-13.490332 C60.4507935,-13.490332 68.509668,-5.43145751 68.509668,4.50966799 L68.509668,32.509668 L96.509668,32.509668 C106.450793,32.509668 114.509668,40.5685425 114.509668,50.509668 C114.509668,60.4507935 106.450793,68.509668 96.509668,68.509668 L68.509668,68.509668 L68.509668,96.509668 C68.509668,106.450793 60.4507935,114.509668 50.509668,114.509668 C40.5685425,114.509668 32.509668,106.450793 32.509668,96.509668 L32.509668,68.509668 L4.50966799,68.509668 C-5.43145751,68.509668 -13.490332,60.4507935 -13.490332,50.509668 C-13.490332,40.5685425 -5.43145751,32.509668 4.50966799,32.509668 L32.509668,32.509668 Z" id="Combined-Shape" fill="#000000" transform="translate(50.509668, 50.509668) rotate(-315.000000) translate(-50.509668, -50.509668) "></path>
      <path d="M179.509668,180.509668 L179.509668,152.509668 C179.509668,142.568542 187.568542,134.509668 197.509668,134.509668 C207.450793,134.509668 215.509668,142.568542 215.509668,152.509668 L215.509668,180.509668 L243.509668,180.509668 C253.450793,180.509668 261.509668,188.568542 261.509668,198.509668 C261.509668,208.450793 253.450793,216.509668 243.509668,216.509668 L215.509668,216.509668 L215.509668,244.509668 C215.509668,254.450793 207.450793,262.509668 197.509668,262.509668 C187.568542,262.509668 179.509668,254.450793 179.509668,244.509668 L179.509668,216.509668 L151.509668,216.509668 C141.568542,216.509668 133.509668,208.450793 133.509668,198.509668 C133.509668,188.568542 141.568542,180.509668 151.509668,180.509668 L179.509668,180.509668 Z" id="Combined-Shape-Copy-3" fill="#000000" transform="translate(197.509668, 198.509668) rotate(-315.000000) translate(-197.509668, -198.509668) "></path>
      <path d="M198,101 C170.385763,101 148,78.6142375 148,51 C148,23.3857625 170.385763,1 198,1 C225.614237,1 248,23.3857625 248,51 C248,78.6142375 225.614237,101 198,101 Z M200,71 C211.045695,71 220,62.045695 220,51 C220,39.954305 211.045695,31 200,31 C188.954305,31 180,39.954305 180,51 C180,62.045695 188.954305,71 200,71 Z" id="Combined-Shape" fill="#000000"></path>
      <path d="M51,249 C23.3857625,249 1,226.614237 1,199 C1,171.385763 23.3857625,149 51,149 C78.6142375,149 101,171.385763 101,199 C101,226.614237 78.6142375,249 51,249 Z M53,219 C64.045695,219 73,210.045695 73,199 C73,187.954305 64.045695,179 53,179 C41.954305,179 33,187.954305 33,199 C33,210.045695 41.954305,219 53,219 Z" id="Combined-Shape-Copy-4" fill="#000000"></path>
  </g>
</svg>
