<svg width="148px" height="148px" viewBox="0 0 148 148" version="1.1" xmlns="http://www.w3.org/2000/svg" xmlns:xlink="http://www.w3.org/1999/xlink">
  <g id="x-texture" stroke="none" stroke-width="1" fill="none" fill-rule="evenodd">
      <path d="M32.509668,32.509668 L32.509668,4.50966799 C32.509668,-5.43145751 40.5685425,-13.490332 50.509668,-13.490332 C60.4507935,-13.490332 68.509668,-5.43145751 68.509668,4.50966799 L68.509668,32.509668 L96.509668,32.509668 C106.450793,32.509668 114.509668,40.5685425 114.509668,50.509668 C114.509668,60.4507935 106.450793,68.509668 96.509668,68.509668 L68.509668,68.509668 L68.509668,96.509668 C68.509668,106.450793 60.4507935,114.509668 50.509668,114.509668 C40.5685425,114.509668 32.509668,106.450793 32.509668,96.509668 L32.509668,68.509668 L4.50966799,68.509668 C-5.43145751,68.509668 -13.490332,60.4507935 -13.490332,50.509668 C-13.490332,40.5685425 -5.43145751,32.509668 4.50966799,32.509668 L32.509668,32.509668 Z" id="Combined-Shape" fill="#000000" transform="translate(50.509668, 50.509668) rotate(-315.000000) translate(-50.509668, -50.509668) "></path>
  </g>
</svg>
